<mxfile host="app.diagrams.net" modified="2024-02-25T19:00:32.209Z" agent="Mozilla/5.0 (Windows NT 10.0; Win64; x64) AppleWebKit/537.36 (KHTML, like Gecko) Chrome/122.0.0.0 Safari/537.36" etag="KwuJzv4P6lcfd6bkGRFW" version="23.1.6" type="github">
  <diagram name="Page-1" id="ikckmo8GSgjBZVpFgyjq">
    <mxGraphModel dx="1222" dy="1734" grid="1" gridSize="10" guides="1" tooltips="1" connect="1" arrows="1" fold="1" page="1" pageScale="1" pageWidth="850" pageHeight="1100" math="0" shadow="0">
      <root>
        <mxCell id="0" />
        <mxCell id="1" parent="0" />
        <mxCell id="SuBXrvFWJu1r78OlMXcg-40" value="" style="rounded=0;whiteSpace=wrap;html=1;" vertex="1" parent="1">
          <mxGeometry x="220" y="20" width="600" height="220" as="geometry" />
        </mxCell>
        <mxCell id="SuBXrvFWJu1r78OlMXcg-21" value="" style="edgeStyle=orthogonalEdgeStyle;rounded=0;orthogonalLoop=1;jettySize=auto;html=1;" edge="1" parent="1" source="SuBXrvFWJu1r78OlMXcg-13" target="SuBXrvFWJu1r78OlMXcg-20">
          <mxGeometry relative="1" as="geometry" />
        </mxCell>
        <mxCell id="SuBXrvFWJu1r78OlMXcg-13" value="User" style="shape=umlActor;verticalLabelPosition=bottom;verticalAlign=top;html=1;outlineConnect=0;" vertex="1" parent="1">
          <mxGeometry x="30" y="140" width="30" height="60" as="geometry" />
        </mxCell>
        <mxCell id="SuBXrvFWJu1r78OlMXcg-17" value="" style="edgeStyle=orthogonalEdgeStyle;rounded=0;orthogonalLoop=1;jettySize=auto;html=1;entryX=0;entryY=0.75;entryDx=0;entryDy=0;exitX=1;exitY=0.5;exitDx=0;exitDy=0;" edge="1" parent="1" source="SuBXrvFWJu1r78OlMXcg-14" target="SuBXrvFWJu1r78OlMXcg-16">
          <mxGeometry relative="1" as="geometry">
            <mxPoint x="300" y="270" as="sourcePoint" />
          </mxGeometry>
        </mxCell>
        <mxCell id="SuBXrvFWJu1r78OlMXcg-14" value="Api gateway" style="rounded=1;whiteSpace=wrap;html=1;fillColor=#dae8fc;strokeColor=#6c8ebf;" vertex="1" parent="1">
          <mxGeometry x="230" y="112.5" width="50" height="115" as="geometry" />
        </mxCell>
        <mxCell id="SuBXrvFWJu1r78OlMXcg-16" value="" style="rounded=1;whiteSpace=wrap;html=1;" vertex="1" parent="1">
          <mxGeometry x="390" y="121" width="90" height="65" as="geometry" />
        </mxCell>
        <mxCell id="SuBXrvFWJu1r78OlMXcg-18" value="" style="rounded=1;whiteSpace=wrap;html=1;fillColor=#d5e8d4;strokeColor=#82b366;" vertex="1" parent="1">
          <mxGeometry x="400" y="131" width="90" height="65" as="geometry" />
        </mxCell>
        <mxCell id="SuBXrvFWJu1r78OlMXcg-43" value="" style="rounded=0;orthogonalLoop=1;jettySize=auto;html=1;entryX=0;entryY=0.5;entryDx=0;entryDy=0;exitX=1;exitY=0.5;exitDx=0;exitDy=0;" edge="1" parent="1" source="SuBXrvFWJu1r78OlMXcg-19" target="SuBXrvFWJu1r78OlMXcg-23">
          <mxGeometry relative="1" as="geometry" />
        </mxCell>
        <mxCell id="SuBXrvFWJu1r78OlMXcg-19" value="Frontend services" style="rounded=1;whiteSpace=wrap;html=1;" vertex="1" parent="1">
          <mxGeometry x="410" y="141" width="90" height="65" as="geometry" />
        </mxCell>
        <mxCell id="SuBXrvFWJu1r78OlMXcg-22" value="" style="edgeStyle=orthogonalEdgeStyle;rounded=0;orthogonalLoop=1;jettySize=auto;html=1;" edge="1" parent="1" source="SuBXrvFWJu1r78OlMXcg-20" target="SuBXrvFWJu1r78OlMXcg-14">
          <mxGeometry relative="1" as="geometry" />
        </mxCell>
        <mxCell id="SuBXrvFWJu1r78OlMXcg-20" value="Web or Mobile app" style="rounded=1;whiteSpace=wrap;html=1;" vertex="1" parent="1">
          <mxGeometry x="100" y="140" width="80" height="60" as="geometry" />
        </mxCell>
        <mxCell id="SuBXrvFWJu1r78OlMXcg-23" value="" style="rounded=1;whiteSpace=wrap;html=1;fillColor=#d5e8d4;strokeColor=#82b366;" vertex="1" parent="1">
          <mxGeometry x="569" y="36.25000000000001" width="40" height="39.5" as="geometry" />
        </mxCell>
        <mxCell id="SuBXrvFWJu1r78OlMXcg-24" value="" style="rounded=1;whiteSpace=wrap;html=1;" vertex="1" parent="1">
          <mxGeometry x="569" y="98.38" width="40" height="40" as="geometry" />
        </mxCell>
        <mxCell id="SuBXrvFWJu1r78OlMXcg-25" value="" style="rounded=1;whiteSpace=wrap;html=1;" vertex="1" parent="1">
          <mxGeometry x="569" y="166" width="40" height="40" as="geometry" />
        </mxCell>
        <mxCell id="SuBXrvFWJu1r78OlMXcg-26" value="" style="rounded=1;whiteSpace=wrap;html=1;fillColor=#d5e8d4;strokeColor=#82b366;" vertex="1" parent="1">
          <mxGeometry x="695" y="35.75000000000001" width="40" height="40" as="geometry" />
        </mxCell>
        <mxCell id="SuBXrvFWJu1r78OlMXcg-27" value="" style="rounded=1;whiteSpace=wrap;html=1;fillColor=#d5e8d4;strokeColor=#82b366;" vertex="1" parent="1">
          <mxGeometry x="695" y="100.88" width="40" height="40" as="geometry" />
        </mxCell>
        <mxCell id="SuBXrvFWJu1r78OlMXcg-28" value="" style="rounded=1;whiteSpace=wrap;html=1;" vertex="1" parent="1">
          <mxGeometry x="695" y="166" width="40" height="40" as="geometry" />
        </mxCell>
        <mxCell id="SuBXrvFWJu1r78OlMXcg-29" value="" style="rounded=1;whiteSpace=wrap;html=1;fillColor=#d5e8d4;strokeColor=#82b366;" vertex="1" parent="1">
          <mxGeometry x="630" y="60.88" width="40" height="40" as="geometry" />
        </mxCell>
        <mxCell id="SuBXrvFWJu1r78OlMXcg-30" value="" style="rounded=1;whiteSpace=wrap;html=1;" vertex="1" parent="1">
          <mxGeometry x="631" y="133.38" width="40" height="40" as="geometry" />
        </mxCell>
        <mxCell id="SuBXrvFWJu1r78OlMXcg-41" value="" style="shape=image;verticalLabelPosition=bottom;labelBackgroundColor=default;verticalAlign=top;aspect=fixed;imageAspect=0;image=https://upload.wikimedia.org/wikipedia/commons/thumb/9/93/Amazon_Web_Services_Logo.svg/2560px-Amazon_Web_Services_Logo.svg.png;" vertex="1" parent="1">
          <mxGeometry x="685" y="-36" width="60" height="35.95" as="geometry" />
        </mxCell>
        <mxCell id="SuBXrvFWJu1r78OlMXcg-44" value="" style="rounded=0;orthogonalLoop=1;jettySize=auto;html=1;entryX=0;entryY=0.5;entryDx=0;entryDy=0;exitX=1;exitY=0.5;exitDx=0;exitDy=0;" edge="1" parent="1" source="SuBXrvFWJu1r78OlMXcg-19" target="SuBXrvFWJu1r78OlMXcg-24">
          <mxGeometry relative="1" as="geometry">
            <mxPoint x="510" y="162" as="sourcePoint" />
            <mxPoint x="579" y="128" as="targetPoint" />
          </mxGeometry>
        </mxCell>
        <mxCell id="SuBXrvFWJu1r78OlMXcg-45" value="" style="rounded=0;orthogonalLoop=1;jettySize=auto;html=1;entryX=0;entryY=0.5;entryDx=0;entryDy=0;exitX=1;exitY=0.5;exitDx=0;exitDy=0;" edge="1" parent="1" source="SuBXrvFWJu1r78OlMXcg-19" target="SuBXrvFWJu1r78OlMXcg-25">
          <mxGeometry relative="1" as="geometry">
            <mxPoint x="520" y="172" as="sourcePoint" />
            <mxPoint x="589" y="138" as="targetPoint" />
          </mxGeometry>
        </mxCell>
        <mxCell id="SuBXrvFWJu1r78OlMXcg-46" value="" style="rounded=0;orthogonalLoop=1;jettySize=auto;html=1;entryX=0;entryY=0.5;entryDx=0;entryDy=0;exitX=1;exitY=0.5;exitDx=0;exitDy=0;" edge="1" parent="1" source="SuBXrvFWJu1r78OlMXcg-23" target="SuBXrvFWJu1r78OlMXcg-29">
          <mxGeometry relative="1" as="geometry">
            <mxPoint x="510" y="184" as="sourcePoint" />
            <mxPoint x="579" y="196" as="targetPoint" />
          </mxGeometry>
        </mxCell>
        <mxCell id="SuBXrvFWJu1r78OlMXcg-47" value="" style="rounded=0;orthogonalLoop=1;jettySize=auto;html=1;entryX=0;entryY=0.5;entryDx=0;entryDy=0;exitX=1;exitY=0.5;exitDx=0;exitDy=0;" edge="1" parent="1" source="SuBXrvFWJu1r78OlMXcg-24" target="SuBXrvFWJu1r78OlMXcg-30">
          <mxGeometry relative="1" as="geometry">
            <mxPoint x="520" y="194" as="sourcePoint" />
            <mxPoint x="589" y="206" as="targetPoint" />
          </mxGeometry>
        </mxCell>
        <mxCell id="SuBXrvFWJu1r78OlMXcg-48" value="" style="rounded=0;orthogonalLoop=1;jettySize=auto;html=1;entryX=0;entryY=0.5;entryDx=0;entryDy=0;exitX=1;exitY=0.5;exitDx=0;exitDy=0;" edge="1" parent="1" source="SuBXrvFWJu1r78OlMXcg-25" target="SuBXrvFWJu1r78OlMXcg-30">
          <mxGeometry relative="1" as="geometry">
            <mxPoint x="530" y="204" as="sourcePoint" />
            <mxPoint x="599" y="216" as="targetPoint" />
          </mxGeometry>
        </mxCell>
        <mxCell id="SuBXrvFWJu1r78OlMXcg-49" value="" style="rounded=0;orthogonalLoop=1;jettySize=auto;html=1;entryX=0;entryY=0.5;entryDx=0;entryDy=0;exitX=1;exitY=0.5;exitDx=0;exitDy=0;" edge="1" parent="1" source="SuBXrvFWJu1r78OlMXcg-30" target="SuBXrvFWJu1r78OlMXcg-28">
          <mxGeometry relative="1" as="geometry">
            <mxPoint x="540" y="214" as="sourcePoint" />
            <mxPoint x="609" y="226" as="targetPoint" />
          </mxGeometry>
        </mxCell>
        <mxCell id="SuBXrvFWJu1r78OlMXcg-50" value="" style="rounded=0;orthogonalLoop=1;jettySize=auto;html=1;entryX=0;entryY=0.5;entryDx=0;entryDy=0;exitX=1;exitY=0.5;exitDx=0;exitDy=0;" edge="1" parent="1" source="SuBXrvFWJu1r78OlMXcg-29" target="SuBXrvFWJu1r78OlMXcg-27">
          <mxGeometry relative="1" as="geometry">
            <mxPoint x="550" y="224" as="sourcePoint" />
            <mxPoint x="619" y="236" as="targetPoint" />
          </mxGeometry>
        </mxCell>
        <mxCell id="SuBXrvFWJu1r78OlMXcg-51" value="" style="rounded=0;orthogonalLoop=1;jettySize=auto;html=1;entryX=0;entryY=0.5;entryDx=0;entryDy=0;exitX=1;exitY=0.5;exitDx=0;exitDy=0;" edge="1" parent="1" source="SuBXrvFWJu1r78OlMXcg-29" target="SuBXrvFWJu1r78OlMXcg-26">
          <mxGeometry relative="1" as="geometry">
            <mxPoint x="560" y="234" as="sourcePoint" />
            <mxPoint x="629" y="246" as="targetPoint" />
          </mxGeometry>
        </mxCell>
      </root>
    </mxGraphModel>
  </diagram>
</mxfile>
